<svg xmlns="http://www.w3.org/2000/svg" width="192" height="64" fill="none" viewBox="0 0 192 64"><rect width="62" height="62" x="129" y="1" fill="#FAFBFC" stroke="#C3D0D9" stroke-width="2" rx="3"/><path fill="#525D66" d="M164.259 17L160.421 20.1368L159.127 22.524H162.34L167.858 29.088L171.139 26.395V24.6839L169.998 23.0838L170.841 22.2084L164.259 17Z"/><path fill="#525D66" d="M155.889 28.4917L158.612 23.7231L161.777 23.7184L176 40.5438L174.895 45.6591H168.799L169.179 44.2177L155.889 28.4917Z"/><path fill="#525D66" d="M153.707 41.6008L154.493 40.6055H160.324L163.351 44.375L162.831 45.6592H155.298L155.483 44.375L153.707 41.6008Z"/><path fill="#525D66" d="M148.733 33.4262H150.528L155.156 29.4587L161.299 36.7498L159.555 39.4207H153.891L149.972 44.4926L149.077 45.6591H144V39.4362L148.733 33.4262Z"/><path fill="#2B65D8" fill-opacity=".5" d="M64 32.9412V30.9412H116V29L120 31.9412L116 34.8503V32.9412H64Z"/><rect width="64" height="64" fill="#F7FAFF" rx="4"/><rect width="62" height="62" x="1" y="1" stroke="#2B65D8" stroke-opacity=".5" stroke-width="2" rx="3"/><rect width="32" height="2" x="16" y="46" fill="#5C6266"/><rect width="2" height="16" x="37" y="28" fill="#E3483F"/><path fill="#2B65D8" fill-rule="evenodd" d="M47 16H45V44H47V16ZM29 18H31V44H29V18ZM41 20H43V44H41V20ZM17 21H19V44H17V21ZM25 23H27V44H25V23ZM35 23H33V44H35V23ZM23 28H21V44H23V28Z" clip-rule="evenodd"/></svg>